<svg xmlns="http://www.w3.org/2000/svg" xmlns:xlink="http://www.w3.org/1999/xlink" width="500" zoomAndPan="magnify" viewBox="0 0 375 374.999991" height="500" preserveAspectRatio="xMidYMid meet" version="1.2"><defs><clipPath id="3b55d250fb"><path d="M 128 198 L 250 198 L 250 260.980469 L 128 260.980469 Z M 128 198 "/></clipPath></defs><g id="54b451a131"><path style=" stroke:none;fill-rule:nonzero;fill:#6a36c2;fill-opacity:1;" d="M 134.40625 155.820312 L 134.40625 143.039062 C 138.71875 141.203125 143.117188 139.585938 147.59375 138.191406 C 152.070312 136.796875 156.609375 135.628906 161.203125 134.691406 C 165.796875 133.753906 170.429688 133.050781 175.09375 132.578125 C 179.761719 132.109375 184.441406 131.871094 189.128906 131.871094 C 193.820312 131.871094 198.496094 132.109375 203.164062 132.578125 C 207.832031 133.050781 212.460938 133.753906 217.054688 134.691406 C 221.652344 135.628906 226.1875 136.796875 230.664062 138.191406 C 235.144531 139.585938 239.539062 141.203125 243.855469 143.039062 L 243.855469 154.121094 L 281.007812 147.292969 L 257.226562 147.410156 L 257.226562 134.371094 L 251.984375 132 C 247.058594 129.777344 242.027344 127.824219 236.890625 126.136719 C 231.757812 124.449219 226.546875 123.039062 221.261719 121.902344 C 215.976562 120.765625 210.648438 119.914062 205.273438 119.34375 C 199.898438 118.769531 194.507812 118.484375 189.101562 118.484375 C 183.695312 118.484375 178.304688 118.769531 172.929688 119.34375 C 167.554688 119.914062 162.226562 120.765625 156.941406 121.902344 C 151.65625 123.039062 146.445312 124.449219 141.3125 126.136719 C 136.175781 127.824219 131.144531 129.777344 126.214844 132 L 120.964844 134.371094 L 120.964844 147.417969 L 93.6875 147.292969 Z M 134.40625 155.820312 "/><g clip-rule="nonzero" clip-path="url(#3b55d250fb)"><path style=" stroke:none;fill-rule:nonzero;fill:#6a36c2;fill-opacity:1;" d="M 235.339844 198.6875 C 234.097656 201.394531 232.730469 204.046875 231.238281 206.644531 C 227.109375 213.796875 222.128906 220.296875 216.289062 226.136719 C 210.453125 231.980469 203.960938 236.96875 196.808594 241.101562 L 189.128906 245.527344 L 181.449219 241.101562 C 174.292969 236.96875 167.792969 231.984375 161.949219 226.140625 C 156.105469 220.300781 151.117188 213.800781 146.980469 206.644531 L 146.300781 205.445312 C 144.121094 203.363281 142.121094 201.125 140.300781 198.726562 L 128.367188 198.726562 C 130.570312 204.367188 133.234375 209.785156 136.355469 214.976562 C 139.472656 220.167969 143.007812 225.058594 146.953125 229.652344 C 150.902344 234.25 155.207031 238.480469 159.867188 242.347656 C 164.53125 246.210938 169.484375 249.660156 174.730469 252.691406 L 189.128906 260.976562 L 203.53125 252.691406 C 208.78125 249.660156 213.738281 246.210938 218.40625 242.339844 C 223.070312 238.472656 227.378906 234.238281 231.332031 229.640625 C 235.28125 225.042969 238.816406 220.144531 241.941406 214.949219 C 245.0625 209.753906 247.726562 204.332031 249.929688 198.6875 Z M 235.339844 198.6875 "/></g><path style=" stroke:none;fill-rule:nonzero;fill:#6a36c2;fill-opacity:1;" d="M 313.25 164.757812 C 321.601562 164.257812 333.652344 142.070312 333.652344 142.070312 L 229 161.273438 C 227.097656 161.625 225.183594 161.707031 223.253906 161.53125 C 221.328125 161.351562 219.460938 160.914062 217.652344 160.214844 L 195.3125 151.613281 C 194.308594 151.226562 193.269531 150.972656 192.203125 150.847656 C 191.132812 150.726562 190.0625 150.738281 188.996094 150.882812 C 187.933594 151.03125 186.902344 151.3125 185.90625 151.722656 C 184.910156 152.128906 183.980469 152.660156 183.121094 153.304688 L 162.671875 168.664062 C 162.277344 168.960938 162.082031 169.355469 162.085938 169.847656 C 162.082031 170.335938 162.277344 170.726562 162.671875 171.015625 C 163.132812 171.363281 163.617188 171.667969 164.128906 171.933594 C 164.640625 172.199219 165.167969 172.421875 165.714844 172.605469 C 166.261719 172.785156 166.820312 172.921875 167.390625 173.015625 C 167.957031 173.105469 168.53125 173.152344 169.105469 173.152344 C 169.683594 173.152344 170.257812 173.105469 170.824219 173.015625 C 171.394531 172.921875 171.953125 172.785156 172.5 172.605469 C 173.046875 172.421875 173.574219 172.199219 174.085938 171.933594 C 174.597656 171.667969 175.082031 171.363281 175.542969 171.015625 L 183.90625 164.738281 C 184.410156 164.363281 184.9375 164.03125 185.492188 163.746094 C 186.046875 163.457031 186.621094 163.210938 187.21875 163.015625 C 187.8125 162.820312 188.417969 162.671875 189.035156 162.570312 C 189.652344 162.472656 190.273438 162.421875 190.902344 162.421875 C 191.527344 162.421875 192.148438 162.472656 192.765625 162.570312 C 193.386719 162.671875 193.992188 162.820312 194.585938 163.015625 C 195.179688 163.210938 195.753906 163.457031 196.308594 163.746094 C 196.863281 164.03125 197.394531 164.363281 197.894531 164.738281 L 227.601562 187.097656 C 228.539062 187.78125 229.3125 188.613281 229.925781 189.601562 C 230.539062 190.585938 230.945312 191.648438 231.144531 192.792969 L 231.144531 192.859375 C 231.183594 193.070312 231.261719 193.269531 231.375 193.453125 C 231.484375 193.640625 231.625 193.800781 231.792969 193.933594 C 231.964844 194.070312 232.148438 194.171875 232.355469 194.242188 C 232.558594 194.3125 232.769531 194.34375 232.984375 194.335938 C 232.984375 194.335938 267.894531 195.960938 279.308594 197.21875 C 284.839844 197.832031 296.589844 186.65625 296.589844 186.65625 L 267.289062 181.65625 C 278.695312 182.507812 293.433594 183.507812 301.125 183.515625 C 307.71875 183.515625 320 168.203125 320 168.203125 L 250.210938 168.664062 C 250.210938 168.664062 295.949219 165.792969 313.25 164.757812 Z M 313.25 164.757812 "/><path style=" stroke:none;fill-rule:nonzero;fill:#6a36c2;fill-opacity:1;" d="M 226.929688 193.722656 C 226.839844 193.085938 226.628906 192.492188 226.296875 191.941406 C 225.964844 191.390625 225.535156 190.925781 225.007812 190.554688 L 195.246094 168.183594 C 194.609375 167.707031 193.914062 167.34375 193.160156 167.089844 C 192.40625 166.839844 191.632812 166.714844 190.839844 166.714844 C 190.042969 166.714844 189.269531 166.839844 188.515625 167.089844 C 187.761719 167.34375 187.066406 167.707031 186.433594 168.183594 L 178.070312 174.453125 C 177.421875 174.9375 176.742188 175.363281 176.023438 175.738281 C 175.308594 176.109375 174.566406 176.425781 173.800781 176.679688 C 173.035156 176.933594 172.253906 177.125 171.457031 177.253906 C 170.660156 177.382812 169.855469 177.445312 169.050781 177.445312 C 168.242188 177.445312 167.441406 177.382812 166.644531 177.253906 C 165.847656 177.125 165.0625 176.933594 164.296875 176.679688 C 163.53125 176.425781 162.789062 176.109375 162.074219 175.738281 C 161.359375 175.363281 160.675781 174.9375 160.03125 174.453125 C 159.277344 173.890625 158.695312 173.183594 158.289062 172.335938 C 157.882812 171.488281 157.695312 170.59375 157.726562 169.652344 C 157.773438 168.746094 158.015625 167.894531 158.449219 167.09375 C 158.882812 166.296875 159.46875 165.628906 160.203125 165.09375 L 174.605469 154.292969 C 174.738281 154.214844 174.851562 154.113281 174.949219 153.992188 C 175.046875 153.871094 175.117188 153.734375 175.160156 153.585938 C 175.207031 153.4375 175.222656 153.285156 175.207031 153.128906 C 175.195312 152.972656 175.15625 152.828125 175.085938 152.6875 C 175.015625 152.546875 174.925781 152.425781 174.808594 152.320312 C 174.695312 152.21875 174.566406 152.136719 174.417969 152.082031 C 174.273438 152.027344 174.125 152 173.96875 152.003906 C 173.8125 152.003906 173.664062 152.035156 173.519531 152.09375 L 149.84375 160.359375 C 146.160156 161.648438 142.410156 161.894531 138.589844 161.089844 L 129.75 159.363281 L 129.75 159.304688 C 129.394531 159.257812 129.097656 159.207031 128.867188 159.160156 L 41.277344 142.070312 C 41.277344 142.070312 53.328125 164.257812 61.679688 164.757812 C 78.960938 165.792969 124.699219 168.75 124.699219 168.75 L 54.902344 168.289062 C 54.902344 168.289062 67.199219 183.625 73.785156 183.605469 C 81.464844 183.605469 96.214844 182.644531 107.617188 181.742188 L 78.308594 186.742188 C 78.308594 186.742188 90.089844 197.890625 95.589844 197.304688 C 103.136719 196.460938 140.625 194.425781 140.714844 194.425781 C 142.152344 194.425781 142.632812 194.644531 143.074219 195.230469 C 144.277344 196.898438 145.578125 198.492188 146.96875 200.007812 C 148.363281 201.527344 149.839844 202.953125 151.402344 204.296875 C 152.964844 205.636719 154.597656 206.882812 156.308594 208.03125 C 158.019531 209.179688 159.789062 210.222656 161.621094 211.160156 C 163.453125 212.097656 165.335938 212.925781 167.265625 213.640625 C 169.195312 214.355469 171.160156 214.957031 173.164062 215.441406 C 175.164062 215.921875 177.1875 216.289062 179.230469 216.53125 C 181.273438 216.777344 183.328125 216.898438 185.386719 216.898438 L 185.53125 216.898438 C 185.851562 216.90625 186.164062 216.859375 186.472656 216.761719 C 186.777344 216.667969 187.058594 216.523438 187.320312 216.335938 C 187.578125 216.144531 187.804688 215.921875 187.988281 215.660156 C 188.175781 215.398438 188.316406 215.113281 188.410156 214.804688 C 188.515625 214.507812 188.570312 214.203125 188.582031 213.886719 C 188.589844 213.570312 188.554688 213.257812 188.46875 212.957031 C 188.382812 212.652344 188.25 212.367188 188.078125 212.101562 C 187.902344 211.839844 187.695312 211.605469 187.449219 211.40625 L 183.15625 208.171875 C 182.929688 208.007812 182.738281 207.804688 182.585938 207.566406 C 182.433594 207.332031 182.328125 207.074219 182.273438 206.796875 C 182.21875 206.519531 182.214844 206.242188 182.265625 205.964844 C 182.316406 205.6875 182.414062 205.425781 182.5625 205.1875 C 182.726562 204.941406 182.933594 204.738281 183.183594 204.582031 C 183.433594 204.421875 183.703125 204.316406 183.992188 204.269531 C 184.285156 204.21875 184.574219 204.230469 184.859375 204.296875 C 185.148438 204.367188 185.410156 204.492188 185.644531 204.667969 L 189.898438 207.863281 L 190.097656 208.019531 L 197.328125 213.460938 C 197.707031 213.746094 198.125 213.964844 198.574219 214.113281 C 199.023438 214.261719 199.484375 214.339844 199.960938 214.339844 C 200.433594 214.339844 200.894531 214.261719 201.347656 214.113281 C 201.796875 213.964844 202.210938 213.746094 202.589844 213.460938 C 203.425781 212.855469 203.96875 212.054688 204.222656 211.050781 C 204.335938 210.632812 204.386719 210.207031 204.371094 209.773438 C 204.359375 209.339844 204.28125 208.917969 204.140625 208.507812 C 204 208.097656 203.804688 207.714844 203.546875 207.363281 C 203.292969 207.011719 202.992188 206.707031 202.648438 206.445312 L 193.929688 199.914062 C 193.726562 199.765625 193.550781 199.585938 193.40625 199.375 C 193.265625 199.167969 193.160156 198.9375 193.09375 198.691406 C 193.03125 198.449219 193.007812 198.199219 193.03125 197.945312 C 193.050781 197.691406 193.113281 197.449219 193.21875 197.21875 C 193.359375 196.925781 193.554688 196.679688 193.804688 196.476562 C 194.054688 196.273438 194.335938 196.132812 194.652344 196.058594 C 194.964844 195.980469 195.277344 195.976562 195.59375 196.039062 C 195.910156 196.105469 196.199219 196.234375 196.457031 196.429688 L 205.203125 202.976562 L 210.058594 206.636719 C 210.429688 206.925781 210.832031 207.152344 211.269531 207.3125 C 211.710938 207.476562 212.164062 207.570312 212.632812 207.59375 C 213.097656 207.613281 213.558594 207.566406 214.011719 207.445312 C 214.464844 207.324219 214.886719 207.136719 215.28125 206.886719 C 215.574219 206.691406 215.835938 206.46875 216.074219 206.210938 C 216.308594 205.957031 216.515625 205.675781 216.683594 205.371094 C 216.855469 205.066406 216.984375 204.746094 217.078125 204.410156 C 217.171875 204.070312 217.226562 203.730469 217.238281 203.382812 C 217.25 203.03125 217.21875 202.6875 217.148438 202.34375 C 217.078125 202.003906 216.96875 201.675781 216.820312 201.359375 C 216.667969 201.042969 216.484375 200.75 216.265625 200.480469 C 216.046875 200.207031 215.800781 199.964844 215.523438 199.753906 L 204.546875 191.484375 C 204.34375 191.335938 204.167969 191.15625 204.023438 190.949219 C 203.878906 190.738281 203.773438 190.511719 203.707031 190.265625 C 203.640625 190.019531 203.621094 189.769531 203.640625 189.515625 C 203.660156 189.261719 203.722656 189.019531 203.828125 188.789062 C 203.96875 188.496094 204.164062 188.25 204.414062 188.046875 C 204.664062 187.84375 204.945312 187.703125 205.257812 187.628906 C 205.574219 187.550781 205.886719 187.546875 206.203125 187.613281 C 206.519531 187.675781 206.804688 187.808594 207.0625 188 L 218.078125 196.285156 L 218.125 196.285156 L 219.71875 197.488281 C 220.183594 197.832031 220.691406 198.085938 221.25 198.238281 C 221.808594 198.394531 222.375 198.441406 222.953125 198.382812 C 223.527344 198.324219 224.074219 198.164062 224.589844 197.898438 C 225.105469 197.636719 225.554688 197.285156 225.9375 196.851562 C 226.691406 195.941406 227.019531 194.898438 226.929688 193.722656 Z M 226.929688 193.722656 "/></g></svg>