<?xml version="1.0" standalone="no"?>
<!DOCTYPE svg PUBLIC "-//W3C//DTD SVG 20010904//EN"
 "http://www.w3.org/TR/2001/REC-SVG-20010904/DTD/svg10.dtd">
<svg version="1.0" xmlns="http://www.w3.org/2000/svg"
 width="1563.000000pt" height="1563.000000pt" viewBox="0 0 1563.000000 1563.000000"
 preserveAspectRatio="xMidYMid meet">

<g transform="translate(0.000000,1563.000000) scale(0.100000,-0.100000)"
fill="#000000" stroke="none">
<path d="M5390 10467 c-99 -23 -154 -70 -181 -156 -17 -54 -24 -377 -10 -457
30 -169 104 -218 331 -218 63 -1 141 3 173 7 l57 8 0 77 0 77 -150 0 -149 0
-28 28 -28 27 -3 173 c-5 274 0 281 220 275 l128 -3 0 76 c0 71 -2 77 -22 83
-47 14 -283 16 -338 3z"/>
<path d="M6076 10068 c-71 -222 -131 -408 -133 -415 -4 -10 19 -13 100 -13
l104 0 23 80 23 81 150 -3 151 -3 25 -77 25 -78 103 0 c57 0 103 3 103 6 0 5
-122 391 -246 777 l-16 47 -142 0 -142 0 -128 -402z m318 63 c26 -84 45 -155
43 -157 -2 -3 -47 -3 -99 -2 l-94 3 43 145 c49 166 52 174 57 169 2 -2 25 -73
50 -158z"/>
<path d="M6970 10056 l0 -416 105 0 105 0 0 145 0 145 74 0 74 0 53 -145 54
-145 109 0 c82 0 107 3 103 13 -3 6 -31 76 -62 155 l-58 144 36 29 c49 40 70
107 70 223 -1 110 -14 164 -51 201 -55 56 -75 59 -354 63 l-258 3 0 -415z
m431 234 c21 -12 32 -70 24 -121 -10 -59 -32 -69 -147 -69 l-98 0 0 106 0 107
102 -7 c56 -4 109 -11 119 -16z"/>
<path d="M7910 10055 l0 -415 290 0 290 0 0 85 0 85 -190 0 -190 0 0 85 0 85
160 0 160 0 0 80 0 79 -157 3 -158 3 -3 78 -3 77 191 0 190 0 0 85 0 85 -290
0 -290 0 0 -415z"/>
<path d="M8770 10055 l0 -415 290 0 290 0 0 85 0 85 -190 0 -190 0 0 85 0 85
160 0 160 0 0 80 0 79 -157 3 -158 3 -3 78 -3 77 191 0 190 0 0 85 0 85 -290
0 -290 0 0 -415z"/>
<path d="M9630 10056 l0 -416 100 0 100 0 0 145 0 146 77 -3 77 -3 28 -75 c16
-41 40 -105 54 -142 l26 -68 108 0 109 0 -64 156 -64 155 43 42 c34 33 46 53
55 95 23 110 8 257 -31 307 -11 14 -39 36 -61 48 -40 21 -56 22 -299 25 l-258
3 0 -415z m432 227 c14 -12 18 -32 18 -80 0 -94 -12 -103 -145 -103 l-105 0 0
98 c0 54 3 102 8 106 13 15 205 -4 224 -21z"/>
<path d="M7695 9059 c-407 -20 -767 -109 -1157 -287 l-68 -31 0 -130 0 -131
-245 -2 -245 -3 372 -78 c205 -43 376 -78 381 -77 4 0 7 56 7 125 l0 125 38
16 c20 9 109 40 197 69 464 154 947 181 1452 79 113 -22 451 -126 504 -154 17
-10 19 -22 19 -122 0 -100 2 -110 18 -106 9 3 163 31 341 64 l325 59 -207 3
-207 2 0 131 0 130 -67 31 c-381 173 -753 268 -1118 283 -66 3 -138 7 -160 9
-22 1 -103 -1 -180 -5z"/>
<path d="M4896 8542 c94 -163 230 -331 309 -380 40 -25 46 -26 640 -63 330
-21 623 -40 650 -42 28 -3 -264 -3 -648 -1 -657 3 -697 2 -688 -14 5 -9 50
-59 100 -110 98 -99 193 -168 249 -178 30 -6 546 19 642 31 100 13 -47 -17
-277 -56 -248 -42 -252 -43 -235 -62 31 -35 175 -139 228 -165 l52 -25 428 27
c236 14 459 26 495 26 l66 0 64 -77 c178 -214 449 -351 728 -369 88 -6 97 -5
114 14 32 35 19 71 -45 122 -63 50 -77 89 -38 110 24 13 17 17 160 -90 130
-98 150 -110 180 -110 30 0 80 53 80 85 0 43 -15 60 -113 133 -116 86 -123 95
-109 127 20 44 50 32 211 -90 161 -122 190 -134 238 -100 27 19 38 68 24 103
-7 16 -63 66 -136 121 -122 91 -134 106 -119 145 13 35 56 15 193 -89 77 -57
150 -107 164 -110 29 -8 81 16 91 40 14 39 6 81 -21 107 -46 41 -598 455 -631
472 -68 35 -108 21 -254 -91 -96 -74 -180 -113 -246 -113 -97 0 -216 71 -228
137 -12 63 11 92 186 223 147 111 175 139 151 154 -4 3 -125 -36 -267 -86
-354 -126 -301 -125 -889 -9 -253 50 -692 135 -975 191 -283 55 -523 102 -533
104 -15 4 -14 -2 9 -42z"/>
<path d="M9810 8415 c-1257 -233 -1238 -230 -1304 -217 -30 6 -172 56 -315
112 -274 105 -309 113 -393 88 -23 -7 -128 -78 -251 -171 -256 -192 -255 -191
-237 -212 25 -30 70 -46 128 -46 76 -1 93 7 203 91 52 39 111 81 132 91 58 30
128 35 184 14 50 -19 632 -450 691 -511 18 -19 35 -48 38 -64 4 -16 12 -34 18
-40 7 -5 95 -14 197 -20 101 -6 261 -15 354 -20 94 -6 229 -15 302 -21 150
-13 169 -9 260 50 67 43 186 141 180 147 -2 3 -123 25 -268 49 -270 46 -327
58 -229 49 30 -2 175 -11 323 -19 299 -16 317 -14 401 45 52 35 220 200 237
233 l11 20 -678 -7 c-374 -4 -677 -6 -674 -3 3 3 228 19 500 36 272 17 555 35
628 40 132 8 134 9 188 46 30 21 82 72 116 114 84 104 218 310 196 300 -2 -1
-424 -79 -938 -174z"/>
<path d="M6636 7418 c4 -13 28 -68 54 -123 115 -246 289 -480 497 -668 153
-138 230 -191 534 -365 l125 -73 171 99 c93 55 199 118 234 142 235 156 443
364 603 603 65 98 206 367 206 393 0 11 -29 14 -143 14 l-143 0 -38 -77 c-94
-190 -266 -410 -432 -554 -132 -114 -242 -190 -420 -288 l-41 -23 -114 67
c-301 178 -504 366 -673 626 -41 63 -100 144 -133 181 l-58 67 -118 0 c-118 1
-118 1 -111 -21z"/>
<path d="M5130 5807 c-99 -23 -154 -70 -181 -156 -17 -54 -24 -377 -10 -457
30 -169 104 -218 331 -218 63 -1 141 3 173 7 l57 8 0 77 0 77 -150 0 -149 0
-28 28 -28 27 -3 173 c-5 274 0 281 220 275 l128 -3 0 76 c0 71 -2 77 -22 83
-47 14 -283 16 -338 3z"/>
<path d="M5931 5809 c-80 -14 -134 -49 -163 -106 -22 -46 -23 -56 -23 -293 0
-135 4 -262 8 -282 10 -46 48 -93 97 -118 82 -42 338 -50 457 -15 57 17 107
62 125 113 9 27 13 108 13 292 0 252 0 256 -25 305 -30 60 -76 89 -165 104
-72 13 -247 13 -324 0z m280 -178 c24 -19 24 -23 27 -217 4 -268 1 -274 -143
-274 -144 0 -147 6 -143 274 4 243 -1 236 143 236 76 0 97 -3 116 -19z"/>
<path d="M9733 5810 c-93 -20 -162 -76 -183 -148 -23 -80 -33 -256 -22 -379
14 -145 25 -184 63 -228 50 -57 122 -78 269 -79 69 -1 151 3 183 7 l57 8 0 78
0 78 -122 -5 c-233 -8 -243 1 -243 253 0 251 8 259 225 254 l130 -4 0 76 c0
71 -2 77 -22 83 -38 11 -290 16 -335 6z"/>
<path d="M6730 5395 l0 -415 95 0 95 0 0 242 c0 151 4 238 9 233 6 -6 73 -113
149 -240 l140 -230 96 -3 96 -3 0 416 0 415 -95 0 -95 0 0 -215 c0 -118 -3
-215 -7 -215 -5 0 -67 96 -139 213 l-131 212 -106 3 -107 3 0 -416z"/>
<path d="M7710 5395 l0 -415 95 0 95 0 0 242 c0 151 4 238 9 233 6 -6 73 -113
149 -240 l140 -230 96 -3 96 -3 0 416 0 415 -95 0 -95 0 0 -215 c0 -118 -3
-215 -7 -215 -5 0 -67 96 -139 213 l-131 212 -106 3 -107 3 0 -416z"/>
<path d="M8690 5395 l0 -415 290 0 290 0 0 85 0 85 -190 0 -190 0 0 85 0 85
160 0 160 0 0 80 0 79 -157 3 -158 3 -3 78 -3 77 191 0 190 0 0 85 0 85 -290
0 -290 0 0 -415z"/>
<path d="M10290 5725 l0 -84 113 -3 112 -3 3 -327 2 -328 100 0 100 0 2 328 3
327 113 3 112 3 0 84 0 85 -330 0 -330 0 0 -85z"/>
</g>
</svg>
